<?xml version="1.0" standalone="no"?>
<!DOCTYPE svg PUBLIC "-//W3C//DTD SVG 20010904//EN"
 "http://www.w3.org/TR/2001/REC-SVG-20010904/DTD/svg10.dtd">
<svg version="1.0" xmlns="http://www.w3.org/2000/svg"
 width="500.000000pt" height="500.000000pt" viewBox="0 0 500.000000 500.000000"
 preserveAspectRatio="xMidYMid meet">
<metadata>
Created by potrace 1.14, written by Peter Selinger 2001-2017
</metadata>
<g transform="translate(0.000000,500.000000) scale(0.100000,-0.100000)"
fill="#000000" stroke="none">
<path d="M3420 4896 c-454 -163 -709 -372 -916 -751 -58 -105 -147 -289 -224
-460 -39 -87 -100 -218 -126 -270 l-24 -50 5 45 c8 71 25 158 47 245 11 44 22
88 24 98 7 38 107 323 125 360 29 56 21 54 -180 -45 -207 -101 -387 -231 -551
-397 -142 -143 -225 -249 -320 -406 -75 -125 -200 -379 -200 -407 0 -8 -4 -18
-9 -24 -20 -21 -126 -380 -146 -489 -6 -37 -13 -71 -21 -108 -3 -16 -7 -38 -9
-50 -10 -82 -18 -144 -20 -157 -2 -8 -6 -51 -11 -95 -5 -54 -9 -72 -14 -55
-10 43 -1 299 15 416 6 43 13 94 20 142 3 20 14 82 25 137 10 55 21 111 24
125 4 26 44 191 53 224 6 23 -11 7 -92 -85 -77 -86 -89 -101 -144 -182 -120
-179 -196 -375 -220 -572 -9 -76 -6 -328 4 -345 3 -5 4 -10 0 -10 -6 0 -90 36
-117 51 -10 5 -19 9 -21 9 -4 0 46 -196 62 -242 5 -16 6 -30 3 -32 -4 -2 -45
15 -92 38 -109 54 -126 60 -113 44 6 -7 65 -120 132 -250 l121 -237 -54 -123
c-29 -68 -70 -159 -91 -203 -128 -275 -216 -513 -239 -647 -3 -15 -7 -32 -10
-37 -14 -22 28 -27 119 -16 11 1 34 3 51 4 31 1 32 3 74 123 90 263 207 563
302 778 40 89 210 432 245 493 169 294 305 502 493 752 75 99 143 189 152 200
9 11 45 54 79 95 132 161 245 284 404 444 104 105 162 159 355 330 99 88 361
283 510 378 426 274 884 494 1210 581 200 54 352 73 525 67 l60 -2 -90 -23
c-255 -64 -516 -149 -739 -240 -77 -31 -146 -61 -155 -65 -9 -5 -90 -45 -181
-90 -167 -81 -183 -90 -345 -185 -194 -114 -537 -359 -671 -480 -7 -5 -36 -30
-65 -55 -201 -171 -479 -457 -657 -675 -31 -38 -59 -72 -62 -75 -3 -3 -21 -25
-40 -50 -19 -25 -37 -47 -40 -50 -27 -25 -256 -348 -355 -500 -121 -186 -375
-609 -375 -625 0 -2 -16 -31 -36 -65 -20 -33 -35 -62 -33 -64 2 -3 83 -18 179
-36 96 -17 195 -35 220 -40 25 -5 46 -7 48 -5 2 2 -35 22 -83 45 -48 22 -86
42 -84 44 2 2 24 7 49 10 25 3 54 8 65 10 18 3 64 11 140 22 17 3 37 7 45 9 8
2 35 6 60 9 25 3 54 8 65 10 20 4 62 10 140 22 22 4 47 8 55 9 8 2 25 4 38 4
45 2 10 20 -78 40 -50 12 -109 24 -132 27 -24 3 -52 7 -64 9 -12 3 -39 7 -60
10 -107 15 -191 43 -214 69 -11 14 -6 16 41 17 89 2 249 16 384 34 17 2 53 7
80 11 28 3 59 8 70 11 11 2 34 6 50 9 17 3 53 9 80 15 28 6 61 13 75 15 73 13
310 82 415 121 140 51 319 139 436 215 l83 52 -35 8 c-18 3 -81 14 -139 22
-116 18 -240 47 -240 56 0 3 51 26 113 49 310 120 700 362 1067 664 54 44 305
241 353 277 32 23 56 44 54 46 -1 2 -32 -3 -67 -10 -36 -8 -85 -17 -110 -20
-25 -3 -56 -8 -70 -11 -14 -3 -45 -7 -70 -10 -25 -3 -58 -8 -75 -10 -16 -2
-61 -7 -100 -10 -38 -3 -90 -8 -115 -11 -25 -2 -130 -5 -235 -5 -264 -1 -481
31 -575 86 -23 13 -17 14 70 9 266 -14 605 -1 780 31 276 51 415 93 595 183
143 70 252 149 365 262 154 154 252 308 329 518 128 347 -20 661 -384 820
-142 62 -267 87 -430 87 -157 0 -245 -17 -364 -72 -107 -48 -168 -99 -263
-215 -46 -57 -101 -123 -123 -148 -22 -25 -50 -59 -63 -75 -26 -33 96 206 207
405 47 85 72 140 63 140 -4 -1 -36 -11 -72 -24z"/>
</g>
</svg>
